<?xml version="1.0" encoding="UTF-8"?>
<svg id="Layer_2" data-name="Layer 2" xmlns="http://www.w3.org/2000/svg" width="221.88" height="221.88" viewBox="0 0 221.88 221.88">
  <g id="Layer_1-2" data-name="Layer 1">
    <g>
      <rect width="221.88" height="221.88" style="fill: #425bda;"/>
      <path d="M45.07,51.76h28.07v112.13h13.95c3.92,0,7.25-1.4,10-4.2,2.75-2.8,4.12-6.11,4.12-9.92V51.76h27.91v112.13h14.12c3.81,0,7.09-1.4,9.83-4.2,2.74-2.8,4.12-6.11,4.12-9.92V51.76h28.07v78.17c0,13.11-4.68,24.38-14.04,33.79-9.36,9.41-20.65,14.12-33.87,14.12h-36.14v-4.37c-5.38,2.92-11.99,4.37-19.84,4.37h-36.31V51.76Z" style="fill: #fff;"/>
    </g>
  </g>
</svg>