<?xml version="1.0" encoding="UTF-8"?>
<svg id="Layer_2" data-name="Layer 2" xmlns="http://www.w3.org/2000/svg" width="242" height="33" viewBox="0 0 242 33">
  <g id="Layer_1-2" data-name="Layer 1">
    <g>
      <polygon points="33.03 3.59 33.03 33 0 33 0 0 29.19 0 20.87 19.78 20.72 19.78 19.62 8.56 15.29 8.56 10.49 19.75 10.34 19.75 9.71 8.56 4.19 8.56 6.54 26.74 11.27 26.74 16.07 16.59 16.21 16.59 17.6 26.74 22.32 26.74 33.03 3.59" style="fill: #fff;"/>
      <g>
        <path d="M60.49,8.98l-2.51,12.58-2.96-12.58h-4.63l-3.08,12.58-2.49-12.58h-4.51l4.39,17.28h5.1l2.86-11.37,2.76,11.37h5.1l4.51-17.28h-4.53Z" style="fill: #fff;"/>
        <path d="M80.6,19.17c0-1.38-.29-2.58-.88-3.62-.58-1.04-1.39-1.83-2.43-2.39-1.04-.56-2.22-.84-3.55-.84s-2.57.29-3.62.86c-1.05.57-1.87,1.4-2.45,2.46-.58,1.07-.87,2.31-.87,3.74s.29,2.68.89,3.74c.59,1.07,1.41,1.89,2.47,2.46,1.05.57,2.25.86,3.6.86,1.12,0,2.13-.21,3.03-.62s1.65-.98,2.25-1.7c.6-.72,1.02-1.53,1.24-2.44h-4.48c-.41.89-1.14,1.33-2.19,1.33-.71,0-1.3-.23-1.79-.68-.48-.45-.76-1.1-.82-1.96h9.54c.05-.43.07-.84.07-1.23ZM71.01,18.06c.11-.75.42-1.34.9-1.75.49-.41,1.08-.62,1.79-.62s1.35.21,1.85.64c.49.43.74,1,.74,1.72h-5.27Z" style="fill: #fff;"/>
        <path d="M97.02,15.65c-.53-1.07-1.26-1.89-2.18-2.46-.92-.58-1.95-.86-3.08-.86-.95,0-1.8.2-2.54.59-.74.39-1.31.91-1.7,1.55v-6.43h-4.21v18.22h4.21v-1.92c.41.64.98,1.15,1.7,1.54.72.39,1.57.58,2.54.58,1.13,0,2.16-.29,3.08-.87.92-.58,1.65-1.41,2.18-2.49.53-1.07.8-2.32.8-3.73s-.27-2.65-.8-3.72ZM92.65,21.87c-.59.62-1.31.92-2.14.92s-1.55-.3-2.13-.91c-.58-.61-.87-1.44-.87-2.49s.29-1.88.87-2.49c.58-.61,1.29-.91,2.13-.91s1.57.3,2.16.9c.58.6.87,1.42.87,2.47s-.29,1.88-.89,2.5Z" style="fill: #fff;"/>
        <path d="M97.13,8.98v3.37h4.58v13.91h4.21v-13.91h4.58v-3.37h-13.38Z" style="fill: #fff;"/>
        <path d="M123.62,19.17c0-1.38-.29-2.58-.87-3.62-.58-1.04-1.39-1.83-2.43-2.39s-2.22-.84-3.55-.84-2.57.29-3.62.86c-1.05.57-1.87,1.4-2.45,2.46-.58,1.07-.88,2.31-.88,3.74s.3,2.68.89,3.74c.59,1.07,1.41,1.89,2.46,2.46,1.05.57,2.25.86,3.6.86,1.12,0,2.13-.21,3.03-.62s1.66-.98,2.26-1.7c.6-.72,1.01-1.53,1.24-2.44h-4.49c-.41.89-1.14,1.33-2.19,1.33-.71,0-1.3-.23-1.79-.68-.49-.45-.76-1.1-.83-1.96h9.54c.05-.43.07-.84.07-1.23ZM114.04,18.06c.11-.75.41-1.34.9-1.75.48-.41,1.08-.62,1.79-.62s1.36.21,1.85.64c.49.43.74,1,.74,1.72h-5.27Z" style="fill: #fff;"/>
        <path d="M132.32,22.86c-.77,0-1.39-.3-1.85-.9s-.69-1.46-.69-2.57.23-1.97.69-2.57c.46-.6,1.08-.9,1.85-.9,1.08,0,1.81.53,2.19,1.58h4.49c-.36-1.64-1.12-2.91-2.28-3.81-1.16-.9-2.6-1.35-4.32-1.35-1.35,0-2.54.29-3.58.86-1.04.57-1.86,1.4-2.44,2.46-.58,1.07-.88,2.31-.88,3.74s.29,2.68.88,3.74c.58,1.07,1.4,1.89,2.44,2.46,1.04.57,2.24.86,3.58.86,1.71,0,3.15-.46,4.31-1.38,1.17-.92,1.93-2.18,2.29-3.79h-4.49c-.38,1.05-1.11,1.58-2.19,1.58Z" style="fill: #fff;"/>
        <path d="M153.98,13.94c-.95-1.04-2.22-1.56-3.79-1.56-.92,0-1.75.18-2.49.54-.74.36-1.32.85-1.75,1.45v-6.33h-4.21v18.22h4.21v-7.46c0-.92.24-1.63.71-2.14.48-.51,1.12-.76,1.92-.76s1.45.26,1.92.76c.48.51.71,1.22.71,2.14v7.46h4.19v-8.03c0-1.82-.48-3.25-1.43-4.3Z" style="fill: #fff;"/>
        <path d="M179.19,8.98l-4.81,11.97-4.85-11.97h-4.98v17.28h4.21v-10.39l3.89,10.39h3.4l3.87-10.37v10.37h4.21V8.98h-4.95Z" style="fill: #fff;"/>
        <path d="M200.63,19.17c0-1.38-.29-2.58-.88-3.62-.58-1.04-1.39-1.83-2.43-2.39-1.03-.56-2.22-.84-3.55-.84s-2.57.29-3.62.86c-1.05.57-1.87,1.4-2.45,2.46-.58,1.07-.88,2.31-.88,3.74s.3,2.68.89,3.74c.59,1.07,1.41,1.89,2.47,2.46,1.05.57,2.25.86,3.6.86,1.12,0,2.13-.21,3.03-.62.9-.41,1.65-.98,2.25-1.7.6-.72,1.02-1.53,1.24-2.44h-4.48c-.41.89-1.14,1.33-2.19,1.33-.71,0-1.3-.23-1.79-.68-.49-.45-.76-1.1-.82-1.96h9.54c.05-.43.07-.84.07-1.23ZM191.04,18.06c.11-.75.42-1.34.9-1.75.49-.41,1.08-.62,1.79-.62s1.36.21,1.85.64c.49.43.74,1,.74,1.72h-5.27Z" style="fill: #fff;"/>
        <path d="M212.8,8.04v6.38c-.43-.64-1.01-1.15-1.76-1.53-.75-.38-1.57-.57-2.48-.57-1.13,0-2.16.29-3.08.86-.92.57-1.65,1.4-2.18,2.46-.53,1.07-.8,2.31-.8,3.72s.27,2.65.8,3.73c.53,1.08,1.26,1.91,2.18,2.49.92.58,1.95.87,3.08.87.97,0,1.82-.2,2.55-.59.73-.39,1.29-.92,1.69-1.58v1.97h4.21V8.04h-4.21ZM211.93,21.88c-.58.61-1.29.91-2.13.91s-1.55-.31-2.13-.92c-.58-.62-.88-1.45-.88-2.5s.29-1.88.88-2.47c.58-.6,1.29-.9,2.13-.9s1.55.3,2.13.91c.58.61.87,1.44.87,2.49s-.29,1.88-.87,2.49Z" style="fill: #fff;"/>
        <path d="M220.56,12.52v13.74h4.21v-13.74h-4.21ZM224.47,7.19c-.47-.44-1.06-.65-1.79-.65s-1.34.22-1.81.65c-.47.43-.7.98-.7,1.64s.23,1.18.7,1.61c.47.43,1.07.65,1.81.65s1.32-.22,1.79-.65c.47-.44.7-.97.7-1.61s-.23-1.2-.7-1.64Z" style="fill: #fff;"/>
        <path d="M237.79,12.52v1.94c-.39-.64-.96-1.16-1.69-1.55-.73-.39-1.58-.59-2.55-.59-1.13,0-2.16.29-3.08.86-.92.57-1.65,1.4-2.18,2.46-.53,1.07-.8,2.31-.8,3.72s.27,2.65.8,3.73c.53,1.08,1.26,1.91,2.18,2.49.92.58,1.94.87,3.06.87.97,0,1.82-.2,2.55-.59s1.3-.91,1.71-1.55v1.95h4.21v-13.74h-4.21ZM236.91,21.88c-.58.61-1.29.91-2.13.91s-1.55-.31-2.13-.92c-.58-.62-.88-1.45-.88-2.5s.29-1.88.88-2.47c.58-.6,1.29-.9,2.13-.9s1.55.3,2.13.91c.58.61.88,1.44.88,2.49s-.29,1.88-.88,2.49Z" style="fill: #fff;"/>
      </g>
    </g>
  </g>
</svg>