<?xml version="1.0" encoding="UTF-8"?>
<svg id="Layer_2" data-name="Layer 2" xmlns="http://www.w3.org/2000/svg" width="242" height="33" viewBox="0 0 242 33">
  <g id="Layer_1-2" data-name="Layer 1">
    <g>
      <g>
        <rect width="33.03" height="33" style="fill: #425bda;"/>
        <path d="M29.19,0l-8.32,19.78h-.14l-1.1-11.22h-4.34l-4.8,11.19h-.14l-.64-11.19h-5.51l2.35,18.18h4.73l4.8-10.16h.14l1.39,10.16h4.73L33.03,3.59V0h-3.84Z" style="fill: #fff;"/>
      </g>
      <g>
        <path d="M65.02,8.98l-4.51,17.28h-5.1l-2.76-11.37-2.86,11.37h-5.1l-4.39-17.28h4.51l2.49,12.58,3.08-12.58h4.63l2.96,12.58,2.51-12.58h4.53Z" style="fill: #2e4e6f;"/>
        <path d="M80.52,20.4h-9.54c.07.85.34,1.51.83,1.96.48.45,1.08.68,1.79.68,1.05,0,1.78-.44,2.19-1.33h4.48c-.23.9-.64,1.72-1.24,2.44-.6.72-1.35,1.29-2.25,1.7-.9.41-1.91.62-3.03.62-1.35,0-2.55-.29-3.6-.86-1.05-.57-1.87-1.39-2.46-2.46-.59-1.07-.89-2.31-.89-3.74s.29-2.68.87-3.74c.58-1.07,1.4-1.89,2.45-2.46,1.05-.57,2.26-.86,3.62-.86s2.51.28,3.55.84c1.03.56,1.84,1.35,2.43,2.39.58,1.03.87,2.24.87,3.62,0,.39-.02.8-.07,1.23ZM76.28,18.06c0-.72-.25-1.3-.74-1.72-.49-.43-1.11-.64-1.85-.64s-1.3.21-1.79.62c-.48.41-.78.99-.9,1.75h5.27Z" style="fill: #2e4e6f;"/>
        <path d="M89.22,12.92c.74-.39,1.59-.59,2.54-.59,1.13,0,2.16.29,3.08.86.92.57,1.65,1.4,2.18,2.46.53,1.07.8,2.31.8,3.72s-.27,2.66-.8,3.73c-.53,1.08-1.26,1.9-2.18,2.49-.92.58-1.95.87-3.08.87-.97,0-1.82-.19-2.54-.58-.72-.39-1.29-.9-1.7-1.54v1.92h-4.21V8.04h4.21v6.43c.39-.64.96-1.16,1.7-1.55ZM92.66,16.89c-.58-.6-1.3-.9-2.16-.9s-1.55.3-2.13.91c-.58.61-.87,1.44-.87,2.49s.29,1.88.87,2.49c.58.61,1.29.91,2.13.91s1.55-.31,2.14-.92c.59-.62.89-1.45.89-2.5s-.29-1.88-.87-2.47Z" style="fill: #2e4e6f;"/>
        <path d="M110.51,8.98v3.37h-4.58v13.91h-4.21v-13.91h-4.58v-3.37h13.38Z" style="fill: #2e4e6f;"/>
        <path d="M123.55,20.4h-9.54c.07.85.34,1.51.83,1.96.48.45,1.08.68,1.79.68,1.05,0,1.78-.44,2.19-1.33h4.48c-.23.9-.64,1.72-1.24,2.44-.6.72-1.35,1.29-2.25,1.7-.9.41-1.91.62-3.03.62-1.35,0-2.55-.29-3.6-.86-1.05-.57-1.87-1.39-2.46-2.46-.59-1.07-.89-2.31-.89-3.74s.29-2.68.87-3.74c.58-1.07,1.4-1.89,2.45-2.46,1.05-.57,2.26-.86,3.62-.86s2.51.28,3.55.84c1.03.56,1.84,1.35,2.43,2.39.58,1.03.87,2.24.87,3.62,0,.39-.02.8-.07,1.23ZM119.31,18.06c0-.72-.25-1.3-.74-1.72-.49-.43-1.11-.64-1.85-.64s-1.3.21-1.79.62c-.48.41-.78.99-.9,1.75h5.27Z" style="fill: #2e4e6f;"/>
        <path d="M126.37,15.65c.58-1.07,1.4-1.89,2.44-2.46,1.04-.57,2.24-.86,3.59-.86,1.72,0,3.17.45,4.32,1.35,1.16.9,1.92,2.18,2.28,3.82h-4.48c-.38-1.05-1.11-1.58-2.19-1.58-.77,0-1.39.3-1.85.9-.46.6-.69,1.46-.69,2.57s.23,1.97.69,2.57c.46.6,1.08.9,1.85.9,1.08,0,1.82-.52,2.19-1.58h4.48c-.36,1.61-1.13,2.87-2.29,3.79-1.17.92-2.6,1.38-4.31,1.38-1.35,0-2.54-.29-3.59-.86-1.04-.57-1.86-1.39-2.44-2.46-.58-1.07-.87-2.31-.87-3.74s.29-2.68.87-3.74Z" style="fill: #2e4e6f;"/>
        <path d="M153.98,13.94c.95,1.04,1.43,2.47,1.43,4.3v8.03h-4.19v-7.46c0-.92-.24-1.63-.71-2.14-.48-.51-1.12-.76-1.92-.76s-1.45.25-1.92.76c-.48.51-.71,1.22-.71,2.14v7.46h-4.21V8.04h4.21v6.33c.43-.61,1.01-1.09,1.75-1.45.74-.36,1.57-.54,2.49-.54,1.58,0,2.84.52,3.79,1.56Z" style="fill: #2e4e6f;"/>
        <path d="M184.14,8.98v17.28h-4.21v-10.37l-3.87,10.37h-3.4l-3.89-10.39v10.39h-4.21V8.98h4.98l4.85,11.97,4.81-11.97h4.95Z" style="fill: #425bda;"/>
        <path d="M200.55,20.4h-9.54c.07.85.34,1.51.83,1.96.48.45,1.08.68,1.79.68,1.05,0,1.78-.44,2.19-1.33h4.48c-.23.9-.64,1.72-1.24,2.44-.6.72-1.35,1.29-2.25,1.7-.9.41-1.91.62-3.03.62-1.35,0-2.55-.29-3.6-.86-1.05-.57-1.87-1.39-2.46-2.46-.59-1.07-.89-2.31-.89-3.74s.29-2.68.87-3.74c.58-1.07,1.4-1.89,2.45-2.46,1.05-.57,2.26-.86,3.62-.86s2.51.28,3.55.84c1.03.56,1.84,1.35,2.43,2.39.58,1.03.87,2.24.87,3.62,0,.39-.02.8-.07,1.23ZM196.31,18.06c0-.72-.25-1.3-.74-1.72-.49-.43-1.11-.64-1.85-.64s-1.3.21-1.79.62c-.48.41-.78.99-.9,1.75h5.27Z" style="fill: #425bda;"/>
        <path d="M203.3,15.65c.53-1.07,1.26-1.89,2.18-2.46.92-.57,1.95-.86,3.08-.86.9,0,1.73.19,2.48.57.75.38,1.33.89,1.76,1.53v-6.38h4.21v18.22h-4.21v-1.97c-.39.66-.96,1.18-1.69,1.58-.73.39-1.58.59-2.55.59-1.13,0-2.16-.29-3.08-.87-.92-.58-1.65-1.41-2.18-2.49-.53-1.07-.8-2.32-.8-3.73s.27-2.65.8-3.72ZM211.92,16.91c-.58-.61-1.29-.91-2.13-.91s-1.55.3-2.13.9c-.58.6-.87,1.42-.87,2.47s.29,1.88.87,2.5c.58.62,1.29.92,2.13.92s1.55-.3,2.13-.91c.58-.61.87-1.44.87-2.49s-.29-1.88-.87-2.49Z" style="fill: #425bda;"/>
        <path d="M220.87,10.44c-.47-.43-.7-.97-.7-1.61s.23-1.2.7-1.64,1.07-.65,1.81-.65,1.32.22,1.79.65.7.98.7,1.64-.23,1.18-.7,1.61c-.47.44-1.06.65-1.79.65s-1.34-.22-1.81-.65ZM224.78,12.52v13.74h-4.21v-13.74h4.21Z" style="fill: #425bda;"/>
        <path d="M228.29,15.65c.53-1.07,1.26-1.89,2.18-2.46.92-.57,1.95-.86,3.08-.86.97,0,1.82.2,2.55.59.73.39,1.29.91,1.69,1.55v-1.95h4.21v13.74h-4.21v-1.95c-.41.64-.98,1.16-1.71,1.55-.73.39-1.58.59-2.55.59-1.12,0-2.14-.29-3.06-.87-.92-.58-1.65-1.41-2.18-2.49-.53-1.07-.8-2.32-.8-3.73s.27-2.65.8-3.72ZM236.91,16.91c-.58-.61-1.29-.91-2.13-.91s-1.55.3-2.13.9c-.58.6-.87,1.42-.87,2.47s.29,1.88.87,2.5c.58.62,1.29.92,2.13.92s1.55-.3,2.13-.91c.58-.61.87-1.44.87-2.49s-.29-1.88-.87-2.49Z" style="fill: #425bda;"/>
      </g>
    </g>
  </g>
</svg>