<?xml version="1.0" encoding="UTF-8"?>
<svg id="Layer_2" data-name="Layer 2" xmlns="http://www.w3.org/2000/svg" width="824.07" height="81.45" viewBox="0 0 824.07 81.45">
  <g id="Layer_1-2" data-name="Layer 1">
    <g>
      <path d="M100.98,9.97l-18.42,70.68h-20.84l-11.28-46.51-11.68,46.51h-20.84L0,9.97h18.42l10.17,51.45,12.59-51.45h18.93l12.08,51.45,10.27-51.45h18.53Z" style="fill: #2e4e6f;"/>
      <path d="M164.31,56.68h-38.96c.27,3.49,1.39,6.16,3.37,8,1.98,1.85,4.41,2.77,7.3,2.77,4.29,0,7.28-1.81,8.96-5.44h18.32c-.94,3.69-2.63,7.01-5.08,9.97-2.45,2.95-5.52,5.27-9.21,6.95-3.69,1.68-7.82,2.52-12.38,2.52-5.5,0-10.4-1.17-14.7-3.52-4.3-2.35-7.65-5.7-10.07-10.07-2.42-4.36-3.62-9.46-3.62-15.3s1.19-10.94,3.57-15.3c2.38-4.36,5.72-7.72,10.02-10.07,4.29-2.35,9.23-3.52,14.8-3.52s10.27,1.14,14.5,3.42c4.23,2.28,7.53,5.54,9.92,9.77,2.38,4.23,3.57,9.16,3.57,14.8,0,1.61-.1,3.29-.3,5.03ZM147,47.12c0-2.95-1.01-5.3-3.02-7.05-2.01-1.74-4.53-2.62-7.55-2.62s-5.32.84-7.3,2.52c-1.98,1.68-3.21,4.06-3.67,7.15h21.55Z" style="fill: #2e4e6f;"/>
      <path d="M199.85,26.08c3.02-1.61,6.48-2.42,10.37-2.42,4.63,0,8.83,1.18,12.58,3.52,3.76,2.35,6.73,5.71,8.91,10.07,2.18,4.36,3.27,9.43,3.27,15.2s-1.09,10.86-3.27,15.25c-2.18,4.4-5.15,7.79-8.91,10.17-3.76,2.38-7.95,3.57-12.58,3.57-3.96,0-7.42-.79-10.37-2.37-2.96-1.58-5.27-3.67-6.95-6.29v7.85h-17.22V6.14h17.22v26.28c1.61-2.62,3.93-4.73,6.95-6.34ZM213.9,42.34c-2.38-2.45-5.32-3.67-8.81-3.67s-6.33,1.24-8.71,3.73c-2.38,2.48-3.57,5.87-3.57,10.17s1.19,7.69,3.57,10.17c2.38,2.48,5.29,3.72,8.71,3.72s6.34-1.26,8.76-3.78c2.42-2.52,3.62-5.92,3.62-10.22s-1.19-7.67-3.57-10.12Z" style="fill: #2e4e6f;"/>
      <path d="M286.84,9.97v13.79h-18.73v56.88h-17.22V23.76h-18.73v-13.79h54.67Z" style="fill: #2e4e6f;"/>
      <path d="M340.1,56.68h-38.96c.27,3.49,1.39,6.16,3.37,8,1.98,1.85,4.41,2.77,7.3,2.77,4.29,0,7.28-1.81,8.96-5.44h18.32c-.94,3.69-2.63,7.01-5.08,9.97-2.45,2.95-5.52,5.27-9.21,6.95-3.69,1.68-7.82,2.52-12.38,2.52-5.5,0-10.4-1.17-14.7-3.52-4.3-2.35-7.65-5.7-10.07-10.07-2.42-4.36-3.62-9.46-3.62-15.3s1.19-10.94,3.57-15.3c2.38-4.36,5.72-7.72,10.02-10.07,4.29-2.35,9.23-3.52,14.8-3.52s10.27,1.14,14.5,3.42c4.23,2.28,7.53,5.54,9.92,9.77,2.38,4.23,3.57,9.16,3.57,14.8,0,1.61-.1,3.29-.3,5.03ZM322.78,47.12c0-2.95-1.01-5.3-3.02-7.05-2.01-1.74-4.53-2.62-7.55-2.62s-5.32.84-7.3,2.52c-1.98,1.68-3.21,4.06-3.67,7.15h21.55Z" style="fill: #2e4e6f;"/>
      <path d="M351.63,37.25c2.38-4.36,5.7-7.72,9.97-10.07,4.26-2.35,9.15-3.52,14.65-3.52,7.05,0,12.94,1.85,17.67,5.54,4.73,3.69,7.84,8.89,9.31,15.61h-18.32c-1.54-4.29-4.53-6.44-8.96-6.44-3.16,0-5.67,1.23-7.55,3.67-1.88,2.45-2.82,5.96-2.82,10.52s.94,8.07,2.82,10.52c1.88,2.45,4.39,3.67,7.55,3.67,4.43,0,7.42-2.15,8.96-6.44h18.32c-1.48,6.58-4.6,11.75-9.36,15.5-4.77,3.76-10.64,5.64-17.62,5.64-5.5,0-10.39-1.17-14.65-3.52-4.26-2.35-7.58-5.7-9.97-10.07-2.38-4.36-3.57-9.46-3.57-15.3s1.19-10.94,3.57-15.3Z" style="fill: #2e4e6f;"/>
      <path d="M464.44,30.25c3.89,4.26,5.84,10.12,5.84,17.57v32.82h-17.12v-30.51c0-3.76-.97-6.68-2.92-8.76-1.95-2.08-4.57-3.12-7.85-3.12s-5.91,1.04-7.85,3.12c-1.95,2.08-2.92,5-2.92,8.76v30.51h-17.22V6.14h17.22v25.88c1.74-2.48,4.13-4.46,7.15-5.94,3.02-1.48,6.41-2.21,10.17-2.21,6.44,0,11.61,2.13,15.5,6.39Z" style="fill: #2e4e6f;"/>
      <path d="M587.67,9.97v70.68h-17.22v-42.39l-15.81,42.39h-13.89l-15.91-42.49v42.49h-17.22V9.97h20.34l19.83,48.93,19.63-48.93h20.24Z" style="fill: #425bda;"/>
      <path d="M654.73,56.68h-38.96c.27,3.49,1.39,6.16,3.37,8,1.98,1.85,4.41,2.77,7.3,2.77,4.29,0,7.28-1.81,8.96-5.44h18.32c-.94,3.69-2.63,7.01-5.08,9.97-2.45,2.95-5.52,5.27-9.21,6.95-3.69,1.68-7.82,2.52-12.38,2.52-5.5,0-10.4-1.17-14.7-3.52-4.3-2.35-7.65-5.7-10.07-10.07-2.42-4.36-3.62-9.46-3.62-15.3s1.19-10.94,3.57-15.3c2.38-4.36,5.72-7.72,10.02-10.07,4.29-2.35,9.23-3.52,14.8-3.52s10.27,1.14,14.5,3.42c4.23,2.28,7.53,5.54,9.92,9.77,2.38,4.23,3.57,9.16,3.57,14.8,0,1.61-.1,3.29-.3,5.03ZM637.41,47.12c0-2.95-1.01-5.3-3.02-7.05-2.01-1.74-4.53-2.62-7.55-2.62s-5.32.84-7.3,2.52c-1.98,1.68-3.21,4.06-3.67,7.15h21.55Z" style="fill: #425bda;"/>
      <path d="M665.95,37.25c2.18-4.36,5.15-7.72,8.91-10.07,3.76-2.35,7.95-3.52,12.58-3.52,3.69,0,7.06.77,10.12,2.32,3.05,1.54,5.45,3.62,7.2,6.24V6.14h17.22v74.5h-17.22v-8.05c-1.61,2.69-3.91,4.83-6.9,6.44-2.99,1.61-6.46,2.42-10.42,2.42-4.63,0-8.83-1.19-12.58-3.57-3.76-2.38-6.73-5.77-8.91-10.17-2.18-4.4-3.27-9.48-3.27-15.25s1.09-10.84,3.27-15.2ZM701.19,42.39c-2.38-2.48-5.29-3.73-8.71-3.73s-6.33,1.23-8.71,3.67c-2.38,2.45-3.57,5.82-3.57,10.12s1.19,7.7,3.57,10.22c2.38,2.52,5.29,3.78,8.71,3.78s6.33-1.24,8.71-3.72c2.38-2.48,3.57-5.87,3.57-10.17s-1.19-7.69-3.57-10.17Z" style="fill: #425bda;"/>
      <path d="M737.74,15.96c-1.91-1.78-2.87-3.98-2.87-6.59s.96-4.92,2.87-6.7,4.38-2.67,7.4-2.67,5.39.89,7.3,2.67,2.87,4.01,2.87,6.7-.96,4.82-2.87,6.59c-1.91,1.78-4.35,2.67-7.3,2.67s-5.49-.89-7.4-2.67ZM753.7,24.47v56.18h-17.22V24.47h17.22Z" style="fill: #425bda;"/>
      <path d="M768.04,37.25c2.18-4.36,5.15-7.72,8.91-10.07,3.76-2.35,7.95-3.52,12.58-3.52,3.96,0,7.43.81,10.42,2.42,2.99,1.61,5.29,3.72,6.9,6.34v-7.95h17.22v56.18h-17.22v-7.95c-1.68,2.62-4.01,4.73-7,6.34-2.99,1.61-6.46,2.42-10.42,2.42-4.57,0-8.73-1.19-12.48-3.57-3.76-2.38-6.73-5.77-8.91-10.17-2.18-4.4-3.27-9.48-3.27-15.25s1.09-10.84,3.27-15.2ZM803.28,42.39c-2.38-2.48-5.29-3.73-8.71-3.73s-6.33,1.23-8.71,3.67c-2.38,2.45-3.57,5.82-3.57,10.12s1.19,7.7,3.57,10.22c2.38,2.52,5.29,3.78,8.71,3.78s6.33-1.24,8.71-3.72c2.38-2.48,3.57-5.87,3.57-10.17s-1.19-7.69-3.57-10.17Z" style="fill: #425bda;"/>
    </g>
  </g>
</svg>