<?xml version="1.0" encoding="UTF-8"?>
<svg id="Layer_2" data-name="Layer 2" xmlns="http://www.w3.org/2000/svg" width="94.81" height="98.96" viewBox="0 0 94.81 98.96">
  <g id="Layer_1-2" data-name="Layer 1">
    <g>
      <path d="M8.33,25.54c2.42.04,4.42-1.9,4.45-4.32.04-2.42-1.9-4.42-4.32-4.45-.04,0-.09,0-.13,0-2.42.04-4.36,2.03-4.32,4.45.04,2.37,1.95,4.28,4.32,4.32ZM75.51,21.83c2.42.04,4.42-1.9,4.45-4.32s-1.9-4.42-4.32-4.45c-.04,0-.09,0-.13,0-2.42.04-4.36,2.03-4.32,4.45.04,2.37,1.95,4.28,4.32,4.32Z" style="fill: #ff37ad;"/>
      <path d="M79.07,78.18c2.42.04,4.42-1.9,4.45-4.32s-1.9-4.42-4.32-4.45c-.04,0-.09,0-.13,0-2.42.04-4.36,2.03-4.32,4.45.04,2.37,1.95,4.28,4.32,4.32ZM26.25,8.77c2.42.04,4.42-1.9,4.45-4.32C30.74,2.03,28.8.04,26.38,0c-.04,0-.09,0-.13,0-2.42.04-4.36,2.03-4.32,4.45.04,2.37,1.95,4.28,4.32,4.32Z" style="fill: #fcc954;"/>
      <path d="M52.2,39.24c-1.89,0-3.43-1.53-3.43-3.42,0-.28.03-.56.1-.83.14-.55.25-1.1.33-1.65-1.03.42-2.12.66-3.23.71-1.99.08-3.78-.26-5.3-1-1.49-.71-2.73-1.86-3.56-3.29-1.64-2.83-1.49-6.56.36-9.5,1.77-2.8,4.75-4.32,7.99-4.07,2.5.19,4.68,1.13,6.44,2.73.32-.9.62-1.86.92-2.89,1.79-6.32,2.38-12.66,2.39-12.73.17-1.88,1.83-3.27,3.72-3.1,0,0,0,0,0,0,1.88.17,3.27,1.84,3.1,3.72-.02.28-.65,7.05-2.62,13.98-.99,3.5-2.16,6.45-3.49,8.81.1.53.18,1.07.23,1.62.28,2.67.06,5.55-.64,8.31-.38,1.52-1.75,2.59-3.32,2.59h0ZM44.75,23c-.35,0-.98.1-1.48.9-.48.76-.58,1.81-.22,2.42.48.82,1.87.9,2.66.86.9-.03,1.82-.6,2.72-1.62-.15-.31-.33-.61-.53-.9-.74-1.03-1.68-1.56-2.96-1.66-.05,0-.11,0-.19,0h0Z" style="fill: #2890e9;"/>
      <path d="M42.36,48.62c-14.2-11.19-29.04-16.04-33.15-10.83-.39.5-.67,1.06-.84,1.67-.02.07-.05.15-.06.23h0c-.05.24-.1.48-.12.72L.15,87.47c-1.29,7.56,6.2,13.61,13.32,10.78l43.6-17.37c.77-.31,2.66-1.47,3.18-2.12.14-.13.27-.28.38-.43,4.11-5.21-4.07-18.51-18.27-29.71h0Z" style="fill: #f0a420;"/>
      <path d="M60.62,78.33c4.11-5.21-4.07-18.52-18.27-29.71-14.2-11.19-29.05-16.04-33.16-10.83-4.11,5.22,4.07,18.52,18.27,29.71,14.2,11.19,29.05,16.04,33.16,10.83Z" style="fill: #fcc954;"/>
      <path d="M58.15,75.29c3.37-4.28-4.06-15.76-16.6-25.65-12.54-9.89-25.44-14.43-28.82-10.15-3.37,4.28,4.06,15.76,16.6,25.65,12.54,9.89,25.44,14.43,28.82,10.15h0Z" style="fill: #f0a420;"/>
      <path d="M28.17,92.39c-5.31.03-9.63-2.63-14.87-6.76-6.1-4.81-10.15-10.57-10.47-13.85l-1.73,10.12c.8,2.89,3.53,6.55,7.48,9.67,3.29,2.59,6.61,4.38,10.05,4.62l9.54-3.8h0ZM22.86,74.02c-10.16-8.01-16.77-17.21-16.58-22.47l-1.68,9.86c.13,4.7,5.62,12.29,13.43,18.45,7,5.52,14.29,9.4,19.87,8.65l9.48-3.78c-7.64.53-15.7-3.76-24.52-10.71Z" style="fill: #2e6ac9;"/>
      <path d="M43.9,53.72c2.42.04,4.42-1.9,4.45-4.32.04-2.42-1.9-4.42-4.32-4.45-.04,0-.09,0-.13,0-2.42.04-4.36,2.03-4.32,4.45.04,2.37,1.95,4.28,4.32,4.32Z" style="fill: #2890e9;"/>
      <path d="M67.56,45.19l.03-.04s.11-.12.22-.23c.22-.22.56-.55,1.04-.95,1.32-1.1,2.76-2.05,4.29-2.83,3.75-1.9,9.34-3.45,16.66-1.76,2.2.51,4.4-.87,4.9-3.07.51-2.2-.87-4.4-3.07-4.9-9.48-2.19-17.02-.19-22.19,2.43-2.1,1.06-4.07,2.36-5.87,3.87-.54.45-1.06.93-1.56,1.43-.19.19-.38.39-.57.6l-.04.05-.02.02h0s0,.01,0,.01t3.1,2.67l-3.1-2.67c-1.45,1.73-1.23,4.31.5,5.76,1.69,1.42,4.21,1.24,5.68-.41h0Z" style="fill: #ff37ad; fill-rule: evenodd;"/>
      <path d="M27.05,16.02c-1.28-2.03-3.97-2.64-6-1.36,0,0,0,0-.01,0-2.03,1.28-2.64,3.97-1.36,6.01,0,0,0,0,0,0,.16.25,3.4,5.5,4.07,12.69.68,7.31-1.47,14.02-6.39,20.04,1.66,2.11,3.65,4.29,5.93,6.48,3.15-3.64,5.52-7.56,7.08-11.7,1.92-5.1,2.6-10.5,2.02-16.06-.92-8.84-4.77-15.23-5.33-16.12h0Z" style="fill: #ff37ad;"/>
      <path d="M81.57,57.99c2.22.58,3.79,1.2,4.47,1.49,1.63,1,3.72.83,5.16-.42.95-.82,1.5-2,1.52-3.25.03-1.91-1.17-3.62-2.98-4.23-2.08-.92-9.96-4.04-20.39-3.49-7.02.37-13.76,2.32-20.05,5.78-5.95,3.28-11.48,7.93-16.5,13.86,2.39,1.7,4.89,3.26,7.47,4.67,8.48-9.66,18.25-14.9,29.15-15.59,4.09-.25,8.18.14,12.15,1.16Z" style="fill: #2890e9;"/>
    </g>
  </g>
</svg>